<svg width="55" height="53" viewBox="0 0 55 53" fill="none" xmlns="http://www.w3.org/2000/svg">
<path d="M6.29737 14.7543H3.64704M51.353 14.7543H48.7026M27.5 1.45227V6.77308M23.5245 6.77308H31.4755M11.598 33.3772H19.549M35.451 33.3772H43.402M36.8027 1H18.1973C11.598 1 10.1403 4.29891 9.29224 8.34272L6.29737 22.7355H48.7026L45.7078 8.34272C44.8597 4.29891 43.402 1 36.8027 1V1ZM53.9768 46.2003C54.2683 49.313 51.777 52 48.5966 52H43.614C40.7516 52 40.3541 50.7762 39.8505 49.2598L39.3205 47.6635C38.5784 45.482 38.1013 44.0188 34.2848 44.0188H20.7152C16.8987 44.0188 16.3421 45.6682 15.6795 47.6635L15.1495 49.2598C14.6459 50.7762 14.2484 52 11.386 52H6.40338C3.22299 52 0.73168 49.313 1.02322 46.2003L2.5074 29.9984C2.87845 26.0078 3.64704 22.7355 10.5909 22.7355H44.4091C51.353 22.7355 52.1216 26.0078 52.4926 29.9984L53.9768 46.2003Z" stroke="#09CC62" stroke-width="2" stroke-linecap="round" stroke-linejoin="round"/>
</svg>
