<svg width="64" height="21" viewBox="0 0 64 21" fill="none" xmlns="http://www.w3.org/2000/svg">
<path d="M12.1572 13.3921C13.3608 14.0096 14.284 13.4922 15.2238 13.4755C15.8668 13.4588 16.5592 13.4755 17.1363 13.6925C18.3728 14.1599 18.5706 15.9624 17.499 16.6801C16.9549 17.0306 16.3284 17.3144 15.7019 17.4646C11.7615 18.3993 7.8047 19.3172 3.83136 20.1851C3.10593 20.352 2.29808 20.3187 1.53968 20.2018C0.385601 20.0349 -0.290367 18.7498 0.121807 17.6816C0.237213 17.3811 0.402084 17.0807 0.566952 16.797C2.21564 14.043 3.83136 11.2724 5.52951 8.55181C5.9252 7.91757 6.46926 7.31671 7.07927 6.86607C8.24984 5.99815 9.45339 6.56563 9.70069 8.05109C9.76664 8.46836 9.71717 8.919 9.71717 9.6367C10.3767 9.38634 10.8383 9.25282 11.2834 9.01915C14.1192 7.55038 16.9384 6.08161 19.7577 4.59615C26.0392 1.3081 32.8318 0.189835 39.8057 0.00623703C41.982 -0.0438347 44.2242 0.20652 46.3181 0.774C49.599 1.6586 52.8139 2.81024 55.9629 4.06204C59.5076 5.48074 61.8487 8.23468 63.349 11.7397C63.5963 12.3239 63.7612 13.0416 63.6788 13.6591C63.6128 14.1098 63.1677 14.7106 62.7555 14.8609C62.3433 15.0111 61.6179 14.8108 61.3046 14.477C60.7771 13.9596 60.4144 13.2252 60.0352 12.5576C58.4689 9.85368 56.2597 7.98433 53.325 6.98289C50.3079 5.96477 47.3732 4.6796 44.1913 4.26234C37.1678 3.36105 30.3917 4.42923 23.9124 7.16648C20.3842 8.65195 17.0374 10.6048 13.6081 12.3573C13.13 12.6076 12.7343 12.9748 12.1572 13.3921Z" fill="#0B2027"/>
</svg>
