<svg width="27" height="45" viewBox="0 0 27 45" fill="none" xmlns="http://www.w3.org/2000/svg">
<path d="M13.5 40.5257C18.2794 40.5257 22.1539 36.6513 22.1539 31.8719C22.1539 27.0925 18.2794 23.218 13.5 23.218C8.72065 23.218 4.84619 27.0925 4.84619 31.8719C4.84619 36.6513 8.72065 40.5257 13.5 40.5257Z" stroke="#09CC62" stroke-miterlimit="10"/>
<path d="M9.65405 30.9101L12.5387 33.7948L17.3464 28.9871" stroke="#09CC62" stroke-miterlimit="10"/>
<path d="M13.5 44.3716C20.4036 44.3716 26 38.7751 26 31.8716C26 24.968 20.4036 19.3716 13.5 19.3716C6.59644 19.3716 1 24.968 1 31.8716C1 38.7751 6.59644 44.3716 13.5 44.3716Z" stroke="#09CC62" stroke-miterlimit="10"/>
<path d="M13.5 19.372V15.5259" stroke="#09CC62" stroke-miterlimit="10"/>
<path d="M20.2308 0.141113V15.5257H6.76929V0.141113" stroke="#09CC62" stroke-miterlimit="10"/>
<path d="M6.76929 11.6794H20.2308" stroke="#09CC62" stroke-miterlimit="10"/>
<path d="M13.5 11.6796V0.141113" stroke="#09CC62" stroke-miterlimit="10"/>
</svg>
