<svg width="30" height="30" viewBox="0 0 30 30" fill="none" xmlns="http://www.w3.org/2000/svg">
<g clip-path="url(#clip0_506_165)">
<path d="M15 30C23.2843 30 30 23.2843 30 15C30 6.71573 23.2843 0 15 0C6.71573 0 0 6.71573 0 15C0 23.2843 6.71573 30 15 30Z" fill="#F0F0F0"/>
<path d="M29.9999 15C29.9999 8.55052 25.9293 3.05238 20.2173 0.932983V29.0671C25.9293 26.9476 29.9999 21.4495 29.9999 15Z" fill="#D80027"/>
<path d="M0 15C0 21.4495 4.07062 26.9476 9.78264 29.067V0.932983C4.07062 3.05238 0 8.55052 0 15Z" fill="#6DA544"/>
</g>
<defs>
<clipPath id="clip0_506_165">
<rect width="30" height="30" fill="white"/>
</clipPath>
</defs>
</svg>
