<svg width="31" height="41" viewBox="0 0 31 41" fill="none" xmlns="http://www.w3.org/2000/svg">
<path d="M12.7158 13.0412L12.3419 12.8324C11.4742 12.3485 10.169 11.2485 9.60429 10.5255C8.34509 8.91407 8.1268 6.95852 9.08519 5.87565C9.561 5.33851 10.2267 5.02867 10.9591 5.00296C11.5675 4.98086 12.1723 5.15901 12.7153 5.51981C13.2601 5.1563 13.8618 4.9759 14.4742 5.00296C15.2049 5.02822 15.8706 5.33806 16.3459 5.8752C17.3043 6.95807 17.086 8.91362 15.8268 10.5255C15.2617 11.2489 13.9565 12.3485 13.0892 12.8324L12.7158 13.0412ZM11.0579 5.90316C11.0353 5.90316 11.0132 5.90362 10.9907 5.90452C10.5072 5.92121 10.0706 6.12326 9.76034 6.47323C9.10097 7.2183 9.3391 8.72149 10.3151 9.96988C10.7891 10.5769 11.9554 11.5637 12.7153 12.0066C13.4753 11.5642 14.6416 10.5774 15.1156 9.96988C16.0911 8.72104 16.3292 7.21784 15.6699 6.47278C15.36 6.1228 14.9234 5.92075 14.4404 5.90407C13.9407 5.88016 13.4437 6.06553 13.0008 6.42904L12.7149 6.66356L12.4289 6.42904C12.0086 6.08447 11.5355 5.90316 11.0579 5.90316Z" fill="#0B2027"/>
<path d="M15.4553 38.6354H13.7879C13.539 38.6354 13.3369 38.4338 13.3369 38.1844C13.3369 37.935 13.539 37.7334 13.7879 37.7334H15.4553C15.7042 37.7334 15.9063 37.935 15.9063 38.1844C15.9063 38.4338 15.7042 38.6354 15.4553 38.6354Z" fill="#0B2027"/>
<path d="M30.0468 6.1057C29.4826 5.46843 28.6929 5.10132 27.8256 5.07155C27.242 5.0481 26.6665 5.18475 26.1258 5.46122V2.69926C26.1258 1.21095 24.9148 0 23.4265 0H5.81658C4.32826 0 3.11732 1.21095 3.11732 2.69926V11.055C2.83048 10.9468 2.53191 10.89 2.22884 10.9003C1.64163 10.9206 1.10809 11.1691 0.726539 11.6003C-0.0365616 12.4626 0.127153 14.0082 1.11711 15.2746C1.53023 15.8032 2.45118 16.5875 3.11732 16.9876V21.9247V32.0615V37.8912C3.11732 39.3799 4.32826 40.5904 5.81658 40.5904H23.4265C24.9153 40.5904 26.1258 39.3795 26.1258 37.8912V14.4466C27.1784 13.8481 28.729 12.5397 29.4059 11.6729C30.9191 9.73674 31.1883 7.39558 30.0468 6.1057ZM10.8832 0.90201H18.3604V1.82296C18.3604 2.14904 18.0952 2.41423 17.7691 2.41423H11.4744C11.1484 2.41423 10.8832 2.14904 10.8832 1.82296V0.90201ZM5.81658 0.90201H9.98116V1.82296C9.98116 2.64605 10.6509 3.31624 11.4744 3.31624H17.7696C18.5926 3.31624 19.2628 2.6465 19.2628 1.82296V0.90201H23.427C24.4178 0.90201 25.2242 1.70841 25.2242 2.69926V5.46212C24.6853 5.18836 24.1102 5.05441 23.5266 5.0711C22.6567 5.10132 21.8674 5.46843 21.3032 6.1057C20.1617 7.39558 20.4305 9.73675 21.9436 11.6725C22.6197 12.5384 24.1698 13.8472 25.2238 14.4466V35.7579H4.01933V33.1552C4.1217 33.1813 4.22724 33.1994 4.33819 33.1994H7.78477C8.36115 33.1994 8.84598 32.8246 8.97271 32.3231C9.89772 32.8417 11.2643 33.1525 12.6403 33.1173H19.9222C20.8833 33.1173 21.6649 32.3357 21.6649 31.3746V31.1175C21.6649 30.7906 21.5747 30.4852 21.4173 30.2236C22.1718 30.032 22.7315 29.3473 22.7315 28.5342V28.2767C22.7315 27.7512 22.4974 27.2795 22.129 26.9597C22.4654 26.6418 22.6756 26.1917 22.6756 25.6933V25.4358C22.6756 24.8855 22.4194 24.394 22.0203 24.0746C22.3306 23.7598 22.5218 23.3278 22.5218 22.852V22.5944C22.5218 21.6338 21.7402 20.8522 20.7782 20.8522L15.8758 20.8599C16.1644 17.6668 15.8591 15.8519 14.9012 15.0063C14.3279 14.5003 13.5572 14.369 12.5438 14.6035C12.3471 14.6495 12.2051 14.8196 12.1956 15.0216C12.0594 17.8783 10.4615 21.1796 9.00383 21.8742C8.97497 21.2703 8.43917 20.7877 7.78477 20.7877H4.33819C4.22724 20.7877 4.1217 20.8062 4.01933 20.8319V16.9885C4.68501 16.5884 5.60596 15.8046 6.01953 15.2755C7.00904 14.0091 7.17365 12.4635 6.4101 11.6012C6.02855 11.17 5.49501 10.9215 4.91006 10.9017C4.60653 10.8886 4.30752 10.9454 4.01933 11.0546V2.69926C4.01933 1.70841 4.82572 0.90201 5.81658 0.90201ZM4.01933 21.9247C4.01933 21.7989 4.16816 21.6888 4.33819 21.6888H7.78477C7.95434 21.6888 8.10318 21.7989 8.10318 21.9247V22.4542V27.4802C8.10318 27.7296 8.30523 27.9312 8.55418 27.9312C8.80313 27.9312 9.00519 27.7296 9.00519 27.4802V22.8326C11.1272 22.2427 12.8175 18.2824 13.0723 15.4199C13.7858 15.3179 14.1151 15.5137 14.3045 15.6814C15.0392 16.33 15.2498 18.2084 14.93 21.2635C14.917 21.3907 14.958 21.5174 15.0437 21.6126C15.1294 21.7073 15.2507 21.7614 15.3788 21.7614H15.3792L20.7791 21.7529C21.2428 21.7529 21.6198 22.1299 21.6198 22.5931V22.8506C21.6198 23.3142 21.2428 23.6913 20.7791 23.6913H18.6341C18.3847 23.6913 18.1831 23.8929 18.1831 24.1423C18.1831 24.3917 18.3847 24.5933 18.6341 24.5933H20.7791H20.9329C21.3965 24.5933 21.7736 24.9703 21.7736 25.434V25.6915C21.7736 26.1547 21.3965 26.5317 20.9329 26.5317H18.6341C18.3847 26.5317 18.1831 26.7333 18.1831 26.9827C18.1831 27.2321 18.3847 27.4337 18.6341 27.4337H20.9329H20.9888C21.4525 27.4337 21.8295 27.8108 21.8295 28.2744V28.5319C21.8295 28.9956 21.4525 29.3726 20.9888 29.3726H19.9222H18.6346C18.3852 29.3726 18.1836 29.5742 18.1836 29.8236C18.1836 30.073 18.3852 30.2746 18.6346 30.2746H19.9222C20.3858 30.2746 20.7629 30.6516 20.7629 31.1153V31.3724C20.7629 31.836 20.3858 32.213 19.9222 32.213H12.6286C11.0947 32.2608 9.47964 31.79 8.88792 31.1387C8.76254 31.0003 8.56546 30.9538 8.39137 31.0215C8.21728 31.0882 8.10272 31.256 8.10272 31.4423V32.0592C8.10272 32.1851 7.95389 32.2951 7.78431 32.2951H4.33773C4.16816 32.2951 4.01887 32.1851 4.01887 32.0592V21.9247H4.01933ZM1.82789 14.7194C1.11756 13.8102 0.934452 12.7265 1.40214 12.1979C1.61818 11.9539 1.9226 11.8132 2.26041 11.8019C2.27619 11.8014 2.29153 11.801 2.30731 11.801C2.64556 11.801 2.98156 11.9304 3.28238 12.1767L3.56832 12.4108L3.85426 12.1767C4.17041 11.9174 4.52626 11.7884 4.87714 11.8019C5.21449 11.8132 5.51892 11.9539 5.7345 12.1979C6.20219 12.7265 6.01908 13.8102 5.30875 14.7194C4.96553 15.1587 4.13614 15.865 3.56877 16.2096C3.00005 15.8645 2.17066 15.1583 1.82789 14.7194ZM23.4265 39.6884H5.81658C4.82527 39.6884 4.01933 38.882 4.01933 37.8912V36.6604H25.2242V37.8912C25.2242 38.882 24.4174 39.6884 23.4265 39.6884ZM28.6956 11.1173C28.0976 11.8826 26.6129 13.1346 25.6752 13.6673C24.7367 13.1342 23.252 11.8822 22.6548 11.1173C21.4299 9.54958 21.1395 7.6522 21.9792 6.70329C22.3775 6.25318 22.9381 5.9934 23.5582 5.97221C23.5866 5.9713 23.6155 5.97085 23.6444 5.97085C24.2532 5.97085 24.8549 6.20087 25.3893 6.63834L25.6752 6.87286L25.9612 6.63834C26.5236 6.17787 27.1572 5.9483 27.7931 5.97221C28.4128 5.9934 28.9734 6.25318 29.3717 6.70329C30.211 7.6522 29.9205 9.55003 28.6956 11.1173Z" fill="#0B2027"/>
</svg>
