<svg width="38" height="44" viewBox="0 0 38 44" fill="none" xmlns="http://www.w3.org/2000/svg">
<path d="M20.9676 15.3999C20.9676 15.3999 14.1614 22.9374 17.3676 33.3999" stroke="#09CC62" stroke-miterlimit="10" stroke-linecap="round"/>
<path d="M20.0676 27.1002C20.0676 27.1002 33.1176 23.1627 21.8676 8.2002C21.8676 8.2002 19.8684 11.711 14.9165 14.7375C13.5574 15.5681 12.4103 16.738 11.6859 18.1565C10.3739 20.7259 9.97873 24.6534 16.4676 28.0002" stroke="#09CC62" stroke-linecap="round" stroke-linejoin="round"/>
<path d="M19 1L1 8.2V21.3043C1 25.0048 2.51902 28.5431 5.20192 31.0918L16.5205 41.8445C17.91 43.1645 20.09 43.1645 21.4795 41.8445L32.7981 31.0918C35.481 28.5431 37 25.0048 37 21.3043V8.2L19 1Z" stroke="#09CC62" stroke-linecap="round" stroke-linejoin="round"/>
</svg>
