<svg width="44" height="41" viewBox="0 0 44 41" fill="none" xmlns="http://www.w3.org/2000/svg">
<path d="M33.778 10.1864C32.9749 4.40522 27.9712 0 22.0052 0C16.0397 0 11.0362 4.40461 10.2325 10.1852C4.42491 10.8208 0 15.6564 0 21.5693C0 27.2354 4.07934 31.9941 9.69968 32.8841C10.2702 32.977 10.8071 32.5878 10.8979 32.0205C10.9888 31.4529 10.5998 30.9197 10.029 30.8293C5.43074 30.1009 2.09323 26.2066 2.09323 21.5693C2.09323 16.478 6.10205 12.3626 11.2197 12.2002L12.1736 12.1699L12.231 11.223C12.5414 6.09656 16.8346 2.08089 22.0052 2.08089C27.1757 2.08089 31.469 6.09656 31.7793 11.223L31.8366 12.1693L32.7896 12.2004C37.902 12.3677 41.9068 16.4829 41.9068 21.5693C41.9068 24.2491 40.6899 26.8983 38.6516 28.6559C37.6077 29.5561 36.3971 30.216 35.1508 30.5641C33.1191 31.1312 31.3009 30.8553 29.7318 29.7451C30.9193 26.5405 30.9639 23.3626 29.8477 20.7414C29.2085 19.2403 28.2488 18.1494 27.0721 17.5868C25.4961 16.8332 23.5548 17.1913 22.5569 18.4193C21.7578 19.4025 21.5686 20.804 21.9946 22.5845C22.7715 25.8329 24.8843 28.1227 27.2133 30.3334C26.2403 32.3824 24.8703 34.2683 23.4855 36.0921C23.4791 35.484 23.4479 34.8758 23.3894 34.2692C23.3342 33.6972 22.824 33.2788 22.2476 33.3328C21.6723 33.3877 21.2506 33.8959 21.3058 34.468C21.4765 36.2385 21.4015 38.0238 21.0827 39.7742C21.0041 40.2058 21.2062 40.6399 21.5879 40.8598C21.7512 40.9539 21.9322 41 22.1124 41C22.3537 41 22.5935 40.9171 22.7866 40.7555C25.2875 38.6625 28.7181 37.6419 31.9649 38.0236C32.5387 38.0941 33.0593 37.6836 33.1274 37.113C33.1953 36.5421 32.7852 36.0248 32.2112 35.9573C29.9893 35.6956 27.6947 35.9953 25.5852 36.7765C26.788 35.1732 27.9585 33.5088 28.8801 31.6842C30.8844 32.9581 33.2173 33.2651 35.7169 32.5673C37.2585 32.1367 38.7476 31.3279 40.0233 30.2279C42.5506 28.0485 44 24.8924 44 21.5693C44 15.6621 39.5797 10.8269 33.778 10.1864V10.1864ZM28.0346 28.2269C26.1992 26.4259 24.6127 24.5352 24.031 22.1033C23.7629 20.9822 23.8148 20.1828 24.1851 19.7272C24.4261 19.4307 24.8557 19.2718 25.314 19.2718C25.5993 19.2718 25.8959 19.3334 26.1648 19.462C27.0626 19.8914 27.6149 20.8359 27.9201 21.5526C28.9375 23.9416 28.5694 26.4541 28.0346 28.2269L28.0346 28.2269Z" fill="#0B2027"/>
</svg>
