<svg width="124" height="24" viewBox="0 0 124 24" fill="none" xmlns="http://www.w3.org/2000/svg">
<g clip-path="url(#clip0_246_927)">
<path d="M16.2183 12.2383V23.5214H13.033V12.4223C13.033 9.40859 11.3125 7.718 8.49368 7.718C5.56481 7.718 3.18523 9.44529 3.18523 13.7821V23.5214H0V5.14521H3.18523V7.79141C4.53977 5.62322 6.55329 4.6676 9.1157 4.6676C13.3991 4.6676 16.2183 7.53405 16.2183 12.2383Z" fill="#EAEAEA"/>
<path d="M27.5437 20.9853C30.0696 20.9853 31.9003 19.8095 32.8152 18.3024L35.5247 19.8462C33.9138 22.3455 31.1312 23.999 27.4702 23.999C21.5763 23.999 17.6589 19.8462 17.6589 14.3335C17.6589 8.89387 21.5397 4.6676 27.2508 4.6676C32.7786 4.6676 36.3665 9.22464 36.3665 14.3702C36.3665 14.8478 36.3299 15.3258 36.2568 15.8034H20.9173C21.5397 19.1112 24.1391 20.9853 27.5437 20.9853H27.5437ZM20.9173 13.0104H33.1447C32.5958 9.37188 29.9964 7.68129 27.2508 7.68129C23.8096 7.68129 21.4296 9.81278 20.9173 13.0104H20.9173Z" fill="#EAEAEA"/>
<path d="M37.6768 5.14517V0.95562L40.8616 0V5.14517H45.7308V8.23269H40.8616V18.1923C40.8616 20.9853 42.4725 20.8018 45.7308 20.6545V23.5214C40.2396 24.2563 37.6768 22.7864 37.6768 18.1923V5.14517Z" fill="#EAEAEA"/>
<path d="M61.3881 20.4709V23.5213H47.2934V21.3899L56.6289 8.19554H47.6595V5.14514H61.022V7.27703L51.6499 20.4709H61.3881Z" fill="#EAEAEA"/>
<path d="M71.7921 20.9853C74.3179 20.9853 76.1486 19.8095 77.0636 18.3024L79.773 19.8462C78.1621 22.3455 75.3795 23.999 71.7185 23.999C65.8246 23.999 61.9073 19.8462 61.9073 14.3335C61.9073 8.89387 65.7881 4.6676 71.4991 4.6676C77.027 4.6676 80.6148 9.22464 80.6148 14.3702C80.6148 14.8478 80.5783 15.3258 80.5051 15.8034H65.1656C65.7881 19.1112 68.3874 20.9853 71.7921 20.9853H71.7921ZM65.1656 13.0104H77.393C76.8442 9.37188 74.2448 7.68129 71.4991 7.68129C68.058 7.68129 65.678 9.81278 65.1656 13.0104Z" fill="#EAEAEA"/>
<path d="M90.9745 4.81445V8.15892C88.2289 8.04879 85.2635 9.44531 85.2635 13.7821V23.5214H82.0782V5.14523H85.2635V8.23274C86.4348 5.65995 88.6681 4.81445 90.9745 4.81445Z" fill="#EAEAEA"/>
<path d="M106.143 6.36676L105.86 6.4211L104.928 6.59648L104.063 6.76361L103.801 8.38404L103.772 8.57196C102.848 8.0708 101.779 7.79101 100.627 7.79101C97.003 7.79101 94.1865 10.6226 94.1865 14.3356C94.1865 14.8493 94.2405 15.3462 94.3445 15.8182C93.1922 15.885 92.1604 16.3862 91.4074 17.1547C91.1411 16.2692 90.9997 15.3211 90.9997 14.3356C90.9997 8.89356 95.2848 4.66699 100.627 4.66699C102.678 4.66699 104.579 5.28919 106.143 6.36675L106.143 6.36676Z" fill="url(#paint0_linear_246_927)"/>
<path d="M108.581 8.79743C109.663 10.3553 110.295 12.2556 110.295 14.3355C110.295 19.7733 105.973 24 100.627 24C99.5741 24 98.559 23.837 97.6146 23.528C94.6316 22.5673 92.3019 20.1993 91.4074 17.1546C92.1604 16.3861 93.1922 15.8849 94.3446 15.8182C94.8688 18.2573 96.6785 20.1116 99.0457 20.6879C99.5491 20.8132 100.077 20.8758 100.627 20.8758C104.288 20.8758 107.108 18.0442 107.108 14.3355C107.108 13.1535 106.821 12.0635 106.314 11.1238L106.222 11.224L105.873 13.4208L103.077 12.9781L103.618 9.56176L103.772 8.57188L103.801 8.38396L104.063 6.76353L104.928 6.59641L105.86 6.42103L106.143 6.36668L110.22 5.59827L110.745 8.38814L108.581 8.79743L108.581 8.79743Z" fill="#09CC62"/>
<path d="M111.278 22.0931L112.242 21.5908C112.38 22.2232 112.834 22.6603 113.715 22.6603C114.483 22.6603 114.947 22.3256 115.049 21.8419C115.188 21.2188 114.558 20.9862 113.807 20.7352C112.844 20.4096 111.899 19.9075 112.13 18.6611C112.343 17.4614 113.427 16.9406 114.437 16.9406C115.53 16.9406 116.253 17.5266 116.549 18.3636L115.614 18.8565C115.419 18.3449 115.067 17.9729 114.354 17.9729C113.779 17.9729 113.307 18.2519 113.205 18.7356C113.075 19.3494 113.668 19.5913 114.409 19.8515C115.271 20.1585 116.392 20.5771 116.133 21.9442C115.919 23.1161 114.9 23.6927 113.64 23.6927C112.334 23.6927 111.519 23.0695 111.278 22.0931V22.0931Z" fill="#EAEAEA"/>
<path d="M122.86 23.5718H121.795L122.61 18.9401L120.053 22.2047H119.924L118.543 18.8472L117.719 23.5718H116.653L117.793 17.0615H118.914L120.248 20.3632L122.786 17.0615H124L122.86 23.5718Z" fill="#EAEAEA"/>
</g>
<defs>
<linearGradient id="paint0_linear_246_927" x1="99.7409" y1="7.10835" x2="93.6717" y2="15.9936" gradientUnits="userSpaceOnUse">
<stop stop-color="#DEF700"/>
<stop offset="1" stop-color="#09CC62"/>
</linearGradient>
<clipPath id="clip0_246_927">
<rect width="124" height="24" fill="white"/>
</clipPath>
</defs>
</svg>
