<svg width="141" height="155" viewBox="0 0 141 155" fill="none" xmlns="http://www.w3.org/2000/svg">
<rect width="140.802" height="154.121" rx="6.34241" fill="white"/>
<rect x="0.317121" y="0.317121" width="140.167" height="153.486" rx="6.02529" stroke="#0B2027" stroke-opacity="0.3" stroke-width="0.634241"/>
<path d="M20.1456 23.6863C21.9516 23.6863 23.5336 22.7763 24.3596 21.3763L22.6936 20.4103C22.2316 21.2643 21.2656 21.7963 20.1456 21.7963C18.2276 21.7963 16.9676 20.4663 16.9676 18.5903C16.9676 16.7003 18.2276 15.3703 20.1456 15.3703C21.2656 15.3703 22.2176 15.9023 22.6936 16.7703L24.3596 15.8043C23.5196 14.4043 21.9376 13.4943 20.1456 13.4943C17.1776 13.4943 15.0496 15.7203 15.0496 18.5903C15.0496 21.4463 17.1776 23.6863 20.1456 23.6863ZM30.4034 16.4903V17.3163C29.8994 16.6863 29.1434 16.2943 28.1214 16.2943C26.2594 16.2943 24.7194 17.9043 24.7194 19.9903C24.7194 22.0763 26.2594 23.6863 28.1214 23.6863C29.1434 23.6863 29.8994 23.2943 30.4034 22.6643V23.4903H32.2094V16.4903H30.4034ZM28.4574 21.9643C27.3514 21.9643 26.5254 21.1663 26.5254 19.9903C26.5254 18.8143 27.3514 18.0163 28.4574 18.0163C29.5774 18.0163 30.4034 18.8143 30.4034 19.9903C30.4034 21.1663 29.5774 21.9643 28.4574 21.9643ZM35.2331 17.6943V16.4903H33.4271V23.4903H35.2331V20.1443C35.2331 18.6743 36.4231 18.2543 37.3611 18.3663V16.3503C36.4791 16.3503 35.5971 16.7423 35.2331 17.6943ZM42.1927 18.2263V16.4903H40.6107V14.5303L38.8047 15.0763V16.4903H37.5867V18.2263H38.8047V21.1383C38.8047 23.0283 39.6587 23.7703 42.1927 23.4903V21.8523C41.1567 21.9083 40.6107 21.8943 40.6107 21.1383V18.2263H42.1927Z" fill="#0B2027"/>
<rect x="14.5876" y="32.1518" width="111.626" height="6.34241" rx="3.17121" fill="#E7E7E7"/>
<rect x="14.5876" y="44.8366" width="111.626" height="6.34241" rx="3.17121" fill="#E7E7E7"/>
<rect x="65.3268" y="124.603" width="60.8872" height="6.34241" rx="3.17121" fill="#E7E7E7"/>
<rect x="14.5876" y="57.5214" width="111.626" height="6.34241" rx="3.17121" fill="#E7E7E7"/>
<rect x="65.3268" y="137.288" width="60.8872" height="6.34241" rx="3.17121" fill="#E7E7E7"/>
<rect x="14.5876" y="72.9377" width="111.626" height="19.6615" rx="3.17121" fill="#0B2027"/>
<path opacity="0.75" d="M70.0908 115.647C71.6388 115.647 72.9948 114.867 73.7028 113.667L72.2748 112.839C71.8788 113.571 71.0508 114.027 70.0908 114.027C68.4468 114.027 67.3668 112.887 67.3668 111.279C67.3668 109.659 68.4468 108.519 70.0908 108.519C71.0508 108.519 71.8668 108.975 72.2748 109.719L73.7028 108.891C72.9828 107.691 71.6268 106.911 70.0908 106.911C67.5468 106.911 65.7228 108.819 65.7228 111.279C65.7228 113.727 67.5468 115.647 70.0908 115.647ZM78.8833 109.479V110.187C78.4513 109.647 77.8033 109.311 76.9273 109.311C75.3313 109.311 74.0113 110.691 74.0113 112.479C74.0113 114.267 75.3313 115.647 76.9273 115.647C77.8033 115.647 78.4513 115.311 78.8833 114.771V115.479H80.4313V109.479H78.8833ZM77.2153 114.171C76.2673 114.171 75.5593 113.487 75.5593 112.479C75.5593 111.471 76.2673 110.787 77.2153 110.787C78.1753 110.787 78.8833 111.471 78.8833 112.479C78.8833 113.487 78.1753 114.171 77.2153 114.171ZM83.023 110.511V109.479H81.475V115.479H83.023V112.611C83.023 111.351 84.043 110.991 84.847 111.087V109.359C84.091 109.359 83.335 109.695 83.023 110.511ZM88.9884 110.967V109.479H87.6324V107.799L86.0844 108.267V109.479H85.0404V110.967H86.0844V113.463C86.0844 115.083 86.8164 115.719 88.9884 115.479V114.075C88.1004 114.123 87.6324 114.111 87.6324 113.463V110.967H88.9884ZM98.0816 107.079H91.9016V108.663H94.1576V115.479H95.8136V108.663H98.0816V107.079ZM100.34 115.647C102.104 115.647 103.52 114.267 103.52 112.479C103.52 110.691 102.104 109.311 100.34 109.311C98.5762 109.311 97.1722 110.691 97.1722 112.479C97.1722 114.267 98.5762 115.647 100.34 115.647ZM100.34 114.135C99.4282 114.135 98.7202 113.451 98.7202 112.479C98.7202 111.507 99.4282 110.823 100.34 110.823C101.264 110.823 101.972 111.507 101.972 112.479C101.972 113.451 101.264 114.135 100.34 114.135ZM107.552 110.967V109.479H106.196V107.799L104.648 108.267V109.479H103.604V110.967H104.648V113.463C104.648 115.083 105.38 115.719 107.552 115.479V114.075C106.664 114.123 106.196 114.111 106.196 113.463V110.967H107.552ZM112.656 109.479V110.187C112.224 109.647 111.576 109.311 110.7 109.311C109.104 109.311 107.784 110.691 107.784 112.479C107.784 114.267 109.104 115.647 110.7 115.647C111.576 115.647 112.224 115.311 112.656 114.771V115.479H114.204V109.479H112.656ZM110.988 114.171C110.04 114.171 109.332 113.487 109.332 112.479C109.332 111.471 110.04 110.787 110.988 110.787C111.948 110.787 112.656 111.471 112.656 112.479C112.656 113.487 111.948 114.171 110.988 114.171ZM115.248 115.479H116.796V106.719H115.248V115.479ZM119.234 111.183C119.234 110.859 119.546 110.691 119.93 110.691C120.374 110.691 120.71 110.919 120.89 111.303L122.21 110.583C121.742 109.755 120.902 109.311 119.93 109.311C118.694 109.311 117.65 109.995 117.65 111.219C117.65 113.331 120.746 112.851 120.746 113.727C120.746 114.075 120.41 114.243 119.918 114.243C119.318 114.243 118.91 113.955 118.742 113.463L117.398 114.219C117.83 115.143 118.718 115.647 119.918 115.647C121.202 115.647 122.33 115.023 122.33 113.727C122.33 111.519 119.234 112.071 119.234 111.183Z" fill="#0B2027"/>
<path d="M55.9197 84.7993L57.6131 78.8462H58.4334L57.9588 81.1606L56.1365 87.3774H55.3221L55.9197 84.7993ZM54.1678 78.8462L55.5154 84.6821L55.9197 87.3774H55.1111L53.0428 78.8462H54.1678ZM60.6248 84.6762L61.9432 78.8462H63.074L61.0115 87.3774H60.2029L60.6248 84.6762ZM58.5564 78.8462L60.2029 84.7993L60.8006 87.3774H59.9861L58.2283 81.1606L57.7478 78.8462H58.5564ZM64.9816 81.0376V87.3774H63.8917V81.0376H64.9816ZM63.8097 79.3559C63.8097 79.1801 63.8624 79.0317 63.9679 78.9106C64.0773 78.7895 64.2374 78.729 64.4484 78.729C64.6554 78.729 64.8136 78.7895 64.923 78.9106C65.0363 79.0317 65.0929 79.1801 65.0929 79.3559C65.0929 79.5239 65.0363 79.6684 64.923 79.7895C64.8136 79.9067 64.6554 79.9653 64.4484 79.9653C64.2374 79.9653 64.0773 79.9067 63.9679 79.7895C63.8624 79.6684 63.8097 79.5239 63.8097 79.3559ZM70.3579 86.1469V78.3774H71.4478V87.3774H70.4517L70.3579 86.1469ZM66.0923 84.2778V84.1548C66.0923 83.6704 66.1509 83.2309 66.2681 82.8364C66.3892 82.438 66.5591 82.0962 66.7778 81.811C67.0005 81.5258 67.2642 81.3071 67.5689 81.1548C67.8774 80.9985 68.2212 80.9204 68.6001 80.9204C68.9985 80.9204 69.3462 80.9907 69.6431 81.1313C69.9439 81.268 70.1978 81.4692 70.4048 81.7348C70.6157 81.9966 70.7817 82.313 70.9028 82.6841C71.0239 83.0551 71.1079 83.4751 71.1548 83.9438V84.4829C71.1118 84.9477 71.0278 85.3657 70.9028 85.7368C70.7817 86.1079 70.6157 86.4243 70.4048 86.686C70.1978 86.9477 69.9439 87.1489 69.6431 87.2895C69.3423 87.4262 68.9907 87.4946 68.5884 87.4946C68.2173 87.4946 67.8774 87.4145 67.5689 87.2544C67.2642 87.0942 67.0005 86.8696 66.7778 86.5805C66.5591 86.2915 66.3892 85.9516 66.2681 85.561C66.1509 85.1665 66.0923 84.7387 66.0923 84.2778ZM67.1821 84.1548V84.2778C67.1821 84.5942 67.2134 84.8911 67.2759 85.1684C67.3423 85.4458 67.4439 85.6899 67.5806 85.9008C67.7173 86.1118 67.8911 86.2778 68.1021 86.3989C68.313 86.5161 68.5649 86.5747 68.8579 86.5747C69.2173 86.5747 69.5122 86.4985 69.7427 86.3462C69.9771 86.1938 70.1646 85.9926 70.3052 85.7426C70.4458 85.4926 70.5552 85.2212 70.6333 84.9282V83.5161C70.5864 83.3012 70.5181 83.0942 70.4282 82.895C70.3423 82.6919 70.229 82.5122 70.0884 82.3559C69.9517 82.1958 69.7817 82.0688 69.5786 81.9751C69.3794 81.8813 69.1431 81.8344 68.8696 81.8344C68.5728 81.8344 68.3169 81.8969 68.1021 82.0219C67.8911 82.143 67.7173 82.311 67.5806 82.5258C67.4439 82.7368 67.3423 82.9829 67.2759 83.2641C67.2134 83.5415 67.1821 83.8383 67.1821 84.1548ZM76.8827 81.0376H77.8671V87.2426C77.8671 87.8012 77.7538 88.2778 77.5272 88.6723C77.3007 89.0669 76.9842 89.3657 76.578 89.5688C76.1757 89.7758 75.7108 89.8794 75.1835 89.8794C74.9647 89.8794 74.7069 89.8442 74.41 89.7739C74.1171 89.7075 73.828 89.5923 73.5428 89.4282C73.2616 89.268 73.0253 89.0512 72.8339 88.7778L73.4022 88.1333C73.6678 88.4536 73.9452 88.6762 74.2342 88.8012C74.5272 88.9262 74.8163 88.9887 75.1014 88.9887C75.4452 88.9887 75.7421 88.9243 75.9921 88.7954C76.2421 88.6665 76.4354 88.4751 76.5721 88.2212C76.7128 87.9712 76.7831 87.6626 76.7831 87.2954V82.4321L76.8827 81.0376ZM72.5174 84.2778V84.1548C72.5174 83.6704 72.5741 83.2309 72.6874 82.8364C72.8046 82.438 72.9706 82.0962 73.1854 81.811C73.4042 81.5258 73.6678 81.3071 73.9764 81.1548C74.285 80.9985 74.6327 80.9204 75.0194 80.9204C75.4178 80.9204 75.7655 80.9907 76.0624 81.1313C76.3632 81.268 76.6171 81.4692 76.8241 81.7348C77.035 81.9966 77.201 82.313 77.3221 82.6841C77.4432 83.0551 77.5272 83.4751 77.5741 83.9438V84.4829C77.5311 84.9477 77.4471 85.3657 77.3221 85.7368C77.201 86.1079 77.035 86.4243 76.8241 86.686C76.6171 86.9477 76.3632 87.1489 76.0624 87.2895C75.7616 87.4262 75.41 87.4946 75.0077 87.4946C74.6288 87.4946 74.285 87.4145 73.9764 87.2544C73.6717 87.0942 73.41 86.8696 73.1913 86.5805C72.9725 86.2915 72.8046 85.9516 72.6874 85.561C72.5741 85.1665 72.5174 84.7387 72.5174 84.2778ZM73.6014 84.1548V84.2778C73.6014 84.5942 73.6327 84.8911 73.6952 85.1684C73.7616 85.4458 73.8612 85.6899 73.994 85.9008C74.1307 86.1118 74.3046 86.2778 74.5155 86.3989C74.7264 86.5161 74.9784 86.5747 75.2714 86.5747C75.6307 86.5747 75.9276 86.4985 76.162 86.3462C76.3964 86.1938 76.5819 85.9926 76.7186 85.7426C76.8592 85.4926 76.9686 85.2212 77.0467 84.9282V83.5161C77.0038 83.3012 76.9374 83.0942 76.8475 82.895C76.7616 82.6919 76.6483 82.5122 76.5077 82.3559C76.371 82.1958 76.201 82.0688 75.9979 81.9751C75.7948 81.8813 75.5565 81.8344 75.2831 81.8344C74.9862 81.8344 74.7303 81.8969 74.5155 82.0219C74.3046 82.143 74.1307 82.311 73.994 82.5258C73.8612 82.7368 73.7616 82.9829 73.6952 83.2641C73.6327 83.5415 73.6014 83.8383 73.6014 84.1548ZM81.7844 87.4946C81.343 87.4946 80.9426 87.4204 80.5832 87.2719C80.2278 87.1196 79.9211 86.9067 79.6633 86.6333C79.4094 86.3598 79.2141 86.0356 79.0774 85.6606C78.9407 85.2856 78.8723 84.8755 78.8723 84.4301V84.1841C78.8723 83.6684 78.9485 83.2094 79.1008 82.8071C79.2532 82.4008 79.4602 82.0571 79.7219 81.7758C79.9836 81.4946 80.2805 81.2817 80.6125 81.1372C80.9446 80.9926 81.2883 80.9204 81.6438 80.9204C82.0969 80.9204 82.4875 80.9985 82.8157 81.1548C83.1477 81.311 83.4192 81.5298 83.6301 81.811C83.841 82.0883 83.9973 82.4165 84.0989 82.7954C84.2004 83.1704 84.2512 83.5805 84.2512 84.0258V84.5122H79.5168V83.6274H83.1672V83.5454C83.1516 83.2641 83.093 82.9907 82.9914 82.7251C82.8938 82.4594 82.7375 82.2407 82.5227 82.0688C82.3078 81.8969 82.0149 81.811 81.6438 81.811C81.3977 81.811 81.1711 81.8637 80.9641 81.9692C80.7571 82.0708 80.5793 82.2231 80.4309 82.4262C80.2824 82.6294 80.1672 82.8774 80.0852 83.1704C80.0032 83.4633 79.9621 83.8012 79.9621 84.1841V84.4301C79.9621 84.7309 80.0032 85.0141 80.0852 85.2798C80.1711 85.5415 80.2942 85.7719 80.4543 85.9712C80.6184 86.1704 80.8157 86.3266 81.0461 86.4399C81.2805 86.5532 81.5461 86.6098 81.843 86.6098C82.2258 86.6098 82.55 86.5317 82.8157 86.3755C83.0813 86.2192 83.3137 86.0102 83.5129 85.7485L84.1692 86.27C84.0324 86.477 83.8586 86.6743 83.6477 86.8618C83.4367 87.0493 83.177 87.2016 82.8684 87.3188C82.5637 87.436 82.2024 87.4946 81.7844 87.4946ZM87.8111 81.0376V81.8696H84.3834V81.0376H87.8111ZM85.5435 79.4966H86.6275V85.8071C86.6275 86.0219 86.6607 86.1841 86.7271 86.2934C86.7935 86.4028 86.8795 86.4751 86.9849 86.5102C87.0904 86.5454 87.2037 86.563 87.3248 86.563C87.4146 86.563 87.5084 86.5551 87.606 86.5395C87.7076 86.52 87.7838 86.5044 87.8346 86.4926L87.8404 87.3774C87.7545 87.4048 87.6412 87.4301 87.5006 87.4536C87.3639 87.4809 87.1978 87.4946 87.0025 87.4946C86.7369 87.4946 86.4928 87.4419 86.2701 87.3364C86.0474 87.2309 85.8697 87.0551 85.7369 86.8091C85.608 86.5591 85.5435 86.2231 85.5435 85.8012V79.4966Z" fill="#EAEAEA"/>
</svg>
