<svg width="141" height="155" viewBox="0 0 141 155" fill="none" xmlns="http://www.w3.org/2000/svg">
<rect width="140.802" height="154.121" rx="6.34241" fill="white"/>
<rect x="0.317121" y="0.317121" width="140.167" height="153.486" rx="6.02529" stroke="#0B2027" stroke-opacity="0.3" stroke-width="0.634241"/>
<path d="M20.1455 23.6863C21.9515 23.6863 23.5335 22.7763 24.3595 21.3763L22.6935 20.4103C22.2315 21.2643 21.2655 21.7963 20.1455 21.7963C18.2275 21.7963 16.9675 20.4663 16.9675 18.5903C16.9675 16.7003 18.2275 15.3703 20.1455 15.3703C21.2655 15.3703 22.2175 15.9023 22.6935 16.7703L24.3595 15.8043C23.5195 14.4043 21.9375 13.4943 20.1455 13.4943C17.1775 13.4943 15.0495 15.7203 15.0495 18.5903C15.0495 21.4463 17.1775 23.6863 20.1455 23.6863ZM30.4034 16.4903V17.3163C29.8994 16.6863 29.1434 16.2943 28.1214 16.2943C26.2594 16.2943 24.7194 17.9043 24.7194 19.9903C24.7194 22.0763 26.2594 23.6863 28.1214 23.6863C29.1434 23.6863 29.8994 23.2943 30.4034 22.6643V23.4903H32.2094V16.4903H30.4034ZM28.4574 21.9643C27.3514 21.9643 26.5254 21.1663 26.5254 19.9903C26.5254 18.8143 27.3514 18.0163 28.4574 18.0163C29.5774 18.0163 30.4034 18.8143 30.4034 19.9903C30.4034 21.1663 29.5774 21.9643 28.4574 21.9643ZM35.233 17.6943V16.4903H33.427V23.4903H35.233V20.1443C35.233 18.6743 36.423 18.2543 37.361 18.3663V16.3503C36.479 16.3503 35.597 16.7423 35.233 17.6943ZM42.1927 18.2263V16.4903H40.6107V14.5303L38.8047 15.0763V16.4903H37.5867V18.2263H38.8047V21.1383C38.8047 23.0283 39.6587 23.7703 42.1927 23.4903V21.8523C41.1567 21.9083 40.6107 21.8943 40.6107 21.1383V18.2263H42.1927Z" fill="#0B2027"/>
<rect x="14.5875" y="32.1518" width="111.626" height="6.34241" rx="3.17121" fill="#E7E7E7"/>
<rect x="14.5875" y="44.8366" width="111.626" height="6.34241" rx="3.17121" fill="#E7E7E7"/>
<rect x="65.3268" y="97.5992" width="60.8872" height="6.34241" rx="3.17121" fill="#E7E7E7"/>
<rect x="14.5875" y="57.5214" width="111.626" height="6.34241" rx="3.17121" fill="#E7E7E7"/>
<rect x="65.3268" y="110.284" width="60.8872" height="6.34241" rx="3.17121" fill="#E7E7E7"/>
<rect x="65.3268" y="123.969" width="60.8872" height="19.6615" rx="3.17121" fill="#0B2027"/>
<path opacity="0.75" d="M70.0908 89.6427C71.6388 89.6427 72.9948 88.8627 73.7028 87.6627L72.2748 86.8347C71.8788 87.5667 71.0508 88.0227 70.0908 88.0227C68.4468 88.0227 67.3668 86.8827 67.3668 85.2747C67.3668 83.6547 68.4468 82.5147 70.0908 82.5147C71.0508 82.5147 71.8668 82.9707 72.2748 83.7147L73.7028 82.8867C72.9828 81.6867 71.6268 80.9067 70.0908 80.9067C67.5468 80.9067 65.7228 82.8147 65.7228 85.2747C65.7228 87.7227 67.5468 89.6427 70.0908 89.6427ZM78.8832 83.4747V84.1827C78.4512 83.6427 77.8032 83.3067 76.9272 83.3067C75.3312 83.3067 74.0112 84.6867 74.0112 86.4747C74.0112 88.2627 75.3312 89.6427 76.9272 89.6427C77.8032 89.6427 78.4512 89.3067 78.8832 88.7667V89.4747H80.4312V83.4747H78.8832ZM77.2152 88.1667C76.2672 88.1667 75.5592 87.4827 75.5592 86.4747C75.5592 85.4667 76.2672 84.7827 77.2152 84.7827C78.1752 84.7827 78.8832 85.4667 78.8832 86.4747C78.8832 87.4827 78.1752 88.1667 77.2152 88.1667ZM83.0229 84.5067V83.4747H81.4749V89.4747H83.0229V86.6067C83.0229 85.3467 84.0429 84.9867 84.8469 85.0827V83.3547C84.0909 83.3547 83.3349 83.6907 83.0229 84.5067ZM88.9883 84.9627V83.4747H87.6323V81.7947L86.0843 82.2627V83.4747H85.0403V84.9627H86.0843V87.4587C86.0843 89.0787 86.8163 89.7147 88.9883 89.4747V88.0707C88.1003 88.1187 87.6323 88.1067 87.6323 87.4587V84.9627H88.9883ZM98.0815 81.0747H91.9015V82.6587H94.1575V89.4747H95.8135V82.6587H98.0815V81.0747ZM100.34 89.6427C102.104 89.6427 103.52 88.2627 103.52 86.4747C103.52 84.6867 102.104 83.3067 100.34 83.3067C98.5762 83.3067 97.1722 84.6867 97.1722 86.4747C97.1722 88.2627 98.5762 89.6427 100.34 89.6427ZM100.34 88.1307C99.4282 88.1307 98.7202 87.4467 98.7202 86.4747C98.7202 85.5027 99.4282 84.8187 100.34 84.8187C101.264 84.8187 101.972 85.5027 101.972 86.4747C101.972 87.4467 101.264 88.1307 100.34 88.1307ZM107.552 84.9627V83.4747H106.196V81.7947L104.648 82.2627V83.4747H103.604V84.9627H104.648V87.4587C104.648 89.0787 105.38 89.7147 107.552 89.4747V88.0707C106.664 88.1187 106.196 88.1067 106.196 87.4587V84.9627H107.552ZM112.656 83.4747V84.1827C112.224 83.6427 111.576 83.3067 110.7 83.3067C109.104 83.3067 107.784 84.6867 107.784 86.4747C107.784 88.2627 109.104 89.6427 110.7 89.6427C111.576 89.6427 112.224 89.3067 112.656 88.7667V89.4747H114.204V83.4747H112.656ZM110.988 88.1667C110.04 88.1667 109.332 87.4827 109.332 86.4747C109.332 85.4667 110.04 84.7827 110.988 84.7827C111.948 84.7827 112.656 85.4667 112.656 86.4747C112.656 87.4827 111.948 88.1667 110.988 88.1667ZM115.248 89.4747H116.796V80.7147H115.248V89.4747ZM119.234 85.1787C119.234 84.8547 119.546 84.6867 119.93 84.6867C120.374 84.6867 120.71 84.9147 120.89 85.2987L122.21 84.5787C121.742 83.7507 120.902 83.3067 119.93 83.3067C118.694 83.3067 117.65 83.9907 117.65 85.2147C117.65 87.3267 120.746 86.8467 120.746 87.7227C120.746 88.0707 120.41 88.2387 119.918 88.2387C119.318 88.2387 118.91 87.9507 118.742 87.4587L117.398 88.2147C117.83 89.1387 118.718 89.6427 119.918 89.6427C121.202 89.6427 122.33 89.0187 122.33 87.7227C122.33 85.5147 119.234 86.0667 119.234 85.1787Z" fill="#0B2027"/>
<path d="M80.655 135.83L82.3484 129.877H83.1687L82.6941 132.192L80.8718 138.409H80.0573L80.655 135.83ZM78.9031 129.877L80.2507 135.713L80.655 138.409H79.8464L77.7781 129.877H78.9031ZM85.3601 135.707L86.6784 129.877H87.8093L85.7468 138.409H84.9382L85.3601 135.707ZM83.2917 129.877L84.9382 135.83L85.5359 138.409H84.7214L82.9636 132.192L82.4831 129.877H83.2917ZM89.7169 132.069V138.409H88.627V132.069H89.7169ZM88.545 130.387C88.545 130.211 88.5977 130.063 88.7032 129.942C88.8126 129.821 88.9727 129.76 89.1837 129.76C89.3907 129.76 89.5489 129.821 89.6583 129.942C89.7716 130.063 89.8282 130.211 89.8282 130.387C89.8282 130.555 89.7716 130.7 89.6583 130.821C89.5489 130.938 89.3907 130.996 89.1837 130.996C88.9727 130.996 88.8126 130.938 88.7032 130.821C88.5977 130.7 88.545 130.555 88.545 130.387ZM95.0932 137.178V129.409H96.1831V138.409H95.187L95.0932 137.178ZM90.8276 135.309V135.186C90.8276 134.702 90.8862 134.262 91.0034 133.868C91.1245 133.469 91.2944 133.127 91.5131 132.842C91.7358 132.557 91.9995 132.338 92.3041 132.186C92.6127 132.03 92.9565 131.952 93.3354 131.952C93.7338 131.952 94.0815 132.022 94.3784 132.162C94.6791 132.299 94.9331 132.5 95.1401 132.766C95.351 133.028 95.517 133.344 95.6381 133.715C95.7592 134.086 95.8432 134.506 95.8901 134.975V135.514C95.8471 135.979 95.7631 136.397 95.6381 136.768C95.517 137.139 95.351 137.455 95.1401 137.717C94.9331 137.979 94.6791 138.18 94.3784 138.321C94.0776 138.457 93.726 138.526 93.3237 138.526C92.9526 138.526 92.6127 138.446 92.3041 138.285C91.9995 138.125 91.7358 137.901 91.5131 137.612C91.2944 137.323 91.1245 136.983 91.0034 136.592C90.8862 136.198 90.8276 135.77 90.8276 135.309ZM91.9174 135.186V135.309C91.9174 135.625 91.9487 135.922 92.0112 136.2C92.0776 136.477 92.1791 136.721 92.3159 136.932C92.4526 137.143 92.6264 137.309 92.8373 137.43C93.0483 137.547 93.3002 137.606 93.5932 137.606C93.9526 137.606 94.2475 137.53 94.478 137.377C94.7123 137.225 94.8998 137.024 95.0405 136.774C95.1811 136.524 95.2905 136.252 95.3686 135.959V134.547C95.3217 134.332 95.2534 134.125 95.1635 133.926C95.0776 133.723 94.9643 133.543 94.8237 133.387C94.687 133.227 94.517 133.1 94.3139 133.006C94.1147 132.912 93.8784 132.866 93.6049 132.866C93.3081 132.866 93.0522 132.928 92.8373 133.053C92.6264 133.174 92.4526 133.342 92.3159 133.557C92.1791 133.768 92.0776 134.014 92.0112 134.295C91.9487 134.573 91.9174 134.869 91.9174 135.186ZM101.618 132.069H102.602V138.274C102.602 138.832 102.489 139.309 102.263 139.703C102.036 140.098 101.72 140.397 101.313 140.6C100.911 140.807 100.446 140.91 99.9188 140.91C99.7 140.91 99.4422 140.875 99.1453 140.805C98.8523 140.739 98.5633 140.623 98.2781 140.459C97.9969 140.299 97.7606 140.082 97.5691 139.809L98.1375 139.164C98.4031 139.485 98.6805 139.707 98.9695 139.832C99.2625 139.957 99.5516 140.02 99.8367 140.02C100.18 140.02 100.477 139.955 100.727 139.827C100.977 139.698 101.171 139.506 101.307 139.252C101.448 139.002 101.518 138.694 101.518 138.327V133.463L101.618 132.069ZM97.2527 135.309V135.186C97.2527 134.702 97.3094 134.262 97.4227 133.868C97.5398 133.469 97.7059 133.127 97.9207 132.842C98.1395 132.557 98.4031 132.338 98.7117 132.186C99.0203 132.03 99.368 131.952 99.7547 131.952C100.153 131.952 100.501 132.022 100.798 132.162C101.098 132.299 101.352 132.5 101.559 132.766C101.77 133.028 101.936 133.344 102.057 133.715C102.179 134.086 102.263 134.506 102.309 134.975V135.514C102.266 135.979 102.182 136.397 102.057 136.768C101.936 137.139 101.77 137.455 101.559 137.717C101.352 137.979 101.098 138.18 100.798 138.321C100.497 138.457 100.145 138.526 99.743 138.526C99.3641 138.526 99.0203 138.446 98.7117 138.285C98.407 138.125 98.1453 137.901 97.9266 137.612C97.7078 137.323 97.5398 136.983 97.4227 136.592C97.3094 136.198 97.2527 135.77 97.2527 135.309ZM98.3367 135.186V135.309C98.3367 135.625 98.368 135.922 98.4305 136.2C98.4969 136.477 98.5965 136.721 98.7293 136.932C98.866 137.143 99.0398 137.309 99.2508 137.43C99.4617 137.547 99.7137 137.606 100.007 137.606C100.366 137.606 100.663 137.53 100.897 137.377C101.132 137.225 101.317 137.024 101.454 136.774C101.595 136.524 101.704 136.252 101.782 135.959V134.547C101.739 134.332 101.673 134.125 101.583 133.926C101.497 133.723 101.384 133.543 101.243 133.387C101.106 133.227 100.936 133.1 100.733 133.006C100.53 132.912 100.292 132.866 100.018 132.866C99.7215 132.866 99.4656 132.928 99.2508 133.053C99.0398 133.174 98.866 133.342 98.7293 133.557C98.5965 133.768 98.4969 134.014 98.4305 134.295C98.368 134.573 98.3367 134.869 98.3367 135.186ZM106.52 138.526C106.078 138.526 105.678 138.452 105.319 138.303C104.963 138.151 104.656 137.938 104.399 137.664C104.145 137.391 103.949 137.067 103.813 136.692C103.676 136.317 103.608 135.907 103.608 135.461V135.215C103.608 134.7 103.684 134.241 103.836 133.838C103.988 133.432 104.195 133.088 104.457 132.807C104.719 132.526 105.016 132.313 105.348 132.168C105.68 132.024 106.024 131.952 106.379 131.952C106.832 131.952 107.223 132.03 107.551 132.186C107.883 132.342 108.154 132.561 108.365 132.842C108.576 133.119 108.733 133.448 108.834 133.827C108.936 134.202 108.986 134.612 108.986 135.057V135.543H104.252V134.659H107.903V134.577C107.887 134.295 107.828 134.022 107.727 133.756C107.629 133.491 107.473 133.272 107.258 133.1C107.043 132.928 106.75 132.842 106.379 132.842C106.133 132.842 105.906 132.895 105.699 133C105.492 133.102 105.315 133.254 105.166 133.457C105.018 133.66 104.903 133.909 104.82 134.202C104.738 134.494 104.697 134.832 104.697 135.215V135.461C104.697 135.762 104.738 136.045 104.82 136.311C104.906 136.573 105.029 136.803 105.19 137.002C105.354 137.202 105.551 137.358 105.781 137.471C106.016 137.584 106.281 137.641 106.578 137.641C106.961 137.641 107.285 137.563 107.551 137.407C107.817 137.25 108.049 137.041 108.248 136.78L108.904 137.301C108.768 137.508 108.594 137.705 108.383 137.893C108.172 138.08 107.912 138.233 107.604 138.35C107.299 138.467 106.938 138.526 106.52 138.526ZM112.546 132.069V132.901H109.119V132.069H112.546ZM110.279 130.528H111.363V136.838C111.363 137.053 111.396 137.215 111.462 137.325C111.529 137.434 111.615 137.506 111.72 137.541C111.826 137.577 111.939 137.594 112.06 137.594C112.15 137.594 112.244 137.586 112.341 137.571C112.443 137.551 112.519 137.535 112.57 137.524L112.576 138.409C112.49 138.436 112.376 138.461 112.236 138.485C112.099 138.512 111.933 138.526 111.738 138.526C111.472 138.526 111.228 138.473 111.005 138.368C110.783 138.262 110.605 138.086 110.472 137.84C110.343 137.59 110.279 137.254 110.279 136.832V130.528Z" fill="#EAEAEA"/>
</svg>
