<svg width="33" height="39" viewBox="0 0 33 39" fill="none" xmlns="http://www.w3.org/2000/svg">
<path d="M9.37517 37.6167L10.05 33.3304L8.54682 33.2956H1.36914L6.35726 1.66763C6.37275 1.57215 6.42306 1.48312 6.49661 1.4199C6.57015 1.35668 6.66434 1.32184 6.7624 1.32184H18.865C22.8829 1.32184 25.6556 2.15792 27.1033 3.80816C27.782 4.58231 28.2142 5.3913 28.4232 6.28157C28.6426 7.21572 28.6464 8.33179 28.4323 9.693L28.4168 9.79235V10.6646L29.0954 11.0491C29.667 11.3523 30.1212 11.6993 30.4696 12.0967C31.0502 12.7586 31.4256 13.5999 31.5843 14.5972C31.7482 15.623 31.694 16.8436 31.4256 18.2254C31.116 19.815 30.6154 21.1995 29.9393 22.3323C29.3174 23.3761 28.5252 24.2419 27.5846 24.9128C26.6865 25.5502 25.6195 26.0341 24.4131 26.3437C23.2441 26.6482 21.9113 26.8018 20.4495 26.8018H19.5076C18.8341 26.8018 18.1799 27.0443 17.6664 27.4791C17.1516 27.923 16.8109 28.5294 16.7064 29.1926L16.6355 29.5784L15.4433 37.1328L15.3891 37.4102C15.3749 37.498 15.3504 37.5418 15.3142 37.5715C15.282 37.5986 15.2355 37.6167 15.1904 37.6167H9.37517Z" fill="#253B80"/>
<path d="M29.7376 9.8924C29.7015 10.1234 29.6602 10.3595 29.6137 10.602C28.0177 18.7964 22.5573 21.6273 15.5835 21.6273H12.0328C11.1799 21.6273 10.4612 22.2466 10.3283 23.0878L8.51037 34.6175L7.99556 37.8858C7.90911 38.438 8.33489 38.936 8.89228 38.936H15.19C15.9358 38.936 16.5693 38.3941 16.6867 37.6587L16.7486 37.3387L17.9344 29.8139L18.0105 29.401C18.1266 28.663 18.7614 28.1211 19.5072 28.1211H20.4491C26.5507 28.1211 31.3272 25.6438 32.7232 18.4752C33.3064 15.4805 33.0045 12.98 31.4614 11.2214C30.9943 10.6911 30.415 10.2511 29.7376 9.8924Z" fill="#179BD7"/>
<path d="M28.0678 9.22668C27.824 9.15572 27.5724 9.0912 27.3143 9.03314C27.055 8.97637 26.7892 8.92605 26.5156 8.88218C25.5583 8.72735 24.5093 8.65381 23.3855 8.65381H13.8995C13.666 8.65381 13.4441 8.70671 13.2454 8.80219C12.808 9.0125 12.4829 9.42667 12.4042 9.93374L10.3862 22.715L10.3281 23.0878C10.461 22.2466 11.1797 21.6273 12.0326 21.6273H15.5833C22.5571 21.6273 28.0175 18.7952 29.6135 10.6021C29.6613 10.3595 29.7013 10.1234 29.7374 9.89245C29.3336 9.67827 28.8962 9.49505 28.4252 9.33893C28.3091 9.30023 28.1891 9.26281 28.0678 9.22668Z" fill="#222D65"/>
<path d="M12.4045 9.93366C12.4832 9.42659 12.8083 9.01242 13.2457 8.8034C13.4457 8.70792 13.6664 8.65502 13.8999 8.65502H23.3858C24.5097 8.65502 25.5586 8.72857 26.516 8.8834C26.7895 8.92727 27.0553 8.97758 27.3147 9.03436C27.5727 9.09242 27.8243 9.15693 28.0682 9.22789C28.1895 9.26402 28.3095 9.30144 28.4269 9.33886C28.8978 9.49498 29.3352 9.67948 29.7391 9.89237C30.2139 6.86415 29.7352 4.80232 28.0979 2.93533C26.2928 0.879953 23.0349 0 18.8661 0H6.7635C5.91193 0 5.18552 0.619322 5.05391 1.46186L0.0128881 33.415C-0.0864614 34.0472 0.401255 34.6175 1.03864 34.6175H8.5105L10.3865 22.7149L12.4045 9.93366Z" fill="#253B80"/>
</svg>
