<svg width="60" height="66" viewBox="0 0 60 66" fill="none" xmlns="http://www.w3.org/2000/svg">
<path d="M20.4406 64.6426L27.9401 58.2432C29.0666 57.2637 30.9334 57.2637 32.0599 58.2432L39.5594 64.6426C41.2974 65.5241 43.4218 64.6426 44.0655 62.7489L45.4817 58.4065C45.8357 57.3617 45.4817 55.8272 44.7092 55.0436L37.4029 47.5994C36.8557 47.077 36.4373 46.0322 36.4373 45.2813V35.9761C36.4373 34.6048 37.4351 33.9518 38.6903 34.4742L54.4939 41.3959C56.9723 42.4734 59 41.1348 59 38.3922V34.1803C59 31.9928 57.3907 29.4788 55.3951 28.6299L37.4029 20.7613C37.1271 20.6177 36.893 20.4036 36.7237 20.1403C36.5544 19.8769 36.4557 19.5733 36.4373 19.2594V9.46446C36.4373 6.39538 34.2164 2.77125 31.5128 1.36731C30.5472 0.877563 29.4206 0.877563 28.4551 1.36731C25.7514 2.77125 23.5305 6.42803 23.5305 9.49711V19.292C23.5305 19.8797 23.0799 20.5654 22.5649 20.7939L4.60488 28.6625C2.60932 29.4788 1 31.9928 1 34.1803V38.3922C1 41.1348 3.02775 42.4734 5.5061 41.3959L21.3097 34.4742C22.5327 33.9191 23.5627 34.6048 23.5627 35.9761V45.2813C23.5627 46.0322 23.1443 47.077 22.6293 47.5994L15.323 55.0436C14.5505 55.8272 14.1964 57.329 14.5505 58.4065L15.9667 62.7489C16.5461 64.6426 18.6704 65.5568 20.4406 64.6426V64.6426Z" stroke="#09CC62" stroke-width="2" stroke-linecap="round" stroke-linejoin="round"/>
</svg>
