<svg width="30" height="30" viewBox="0 0 30 30" fill="none" xmlns="http://www.w3.org/2000/svg">
<g clip-path="url(#clip0_506_168)">
<path d="M0 15C0 21.4494 4.07062 26.9475 9.78252 29.0669L11.0869 14.9999L9.78252 0.932983C4.07062 3.05244 0 8.55052 0 15Z" fill="#6DA544"/>
<path d="M30.0002 15C30.0002 6.71578 23.2844 0 15.0002 0C13.1654 0 11.4078 0.330059 9.78271 0.932988V29.067C11.4078 29.67 13.1654 30 15.0002 30C23.2844 30 30.0002 23.2842 30.0002 15Z" fill="#D80027"/>
<path d="M9.78279 20.2174C12.6643 20.2174 15.0002 17.8815 15.0002 15C15.0002 12.1185 12.6643 9.78265 9.78279 9.78265C6.90132 9.78265 4.56543 12.1185 4.56543 15C4.56543 17.8815 6.90132 20.2174 9.78279 20.2174Z" fill="#FFDA44"/>
<path d="M6.84766 12.3913V15.6522C6.84766 17.273 8.16156 18.5869 9.78244 18.5869C11.4033 18.5869 12.7172 17.273 12.7172 15.6522V12.3913H6.84766Z" fill="#D80027"/>
<path d="M9.78248 16.6304C9.24307 16.6304 8.8042 16.1916 8.8042 15.6521V14.3478H10.7607V15.6522C10.7607 16.1916 10.3218 16.6304 9.78248 16.6304Z" fill="#F0F0F0"/>
</g>
<defs>
<clipPath id="clip0_506_168">
<rect width="30" height="30" fill="white"/>
</clipPath>
</defs>
</svg>
