<svg width="50" height="48" viewBox="0 0 50 48" fill="none" xmlns="http://www.w3.org/2000/svg">
<path d="M36.8324 8.46045C36.505 9.77295 35.5077 10.1273 34.8765 10.8237C34.4406 11.2967 33.9973 11.829 33.7808 12.4062C33.3186 13.6446 34.5452 14.9802 35.7909 14.646C36.4129 14.4672 37.0389 14.1824 37.5644 13.8097C40.862 11.4589 44.1579 9.08471 47.4269 6.66516C48.0301 6.22898 48.5368 5.59891 48.9481 4.95112C49.5822 3.97252 49.0598 2.61763 47.9844 2.22468C47.6822 2.11377 47.3476 2.04011 47.0255 1.97742C43.8671 1.4055 40.7178 0.797771 37.552 0.285053C36.8141 0.165374 36.0037 0.179358 35.2629 0.341877C33.839 0.651659 33.4738 1.9312 34.4292 3.09525C34.6999 3.41959 35.0716 3.67902 35.6119 4.15149C34.9893 4.48309 34.5849 4.74268 34.116 4.92394C31.1435 6.09161 28.182 7.24688 25.2078 8.39116C18.5976 10.9549 13.2842 15.3319 8.5549 20.4606C7.08454 22.0658 5.79691 23.9184 4.84568 25.8681C3.3517 28.9201 2.10215 32.0983 0.971398 35.2928C-0.294199 38.895 0.237614 42.4702 1.88832 45.9069C2.16525 46.4777 2.59696 47.0742 3.11608 47.4187C3.49872 47.6658 4.24406 47.7262 4.62848 47.5149C5.01289 47.3035 5.33967 46.6256 5.29461 46.17C5.25245 45.4323 4.93843 44.6758 4.68551 43.9509C3.68127 40.9919 3.72851 38.0982 4.90662 35.2299C6.12643 32.2886 7.09096 29.2335 8.8716 26.5636C12.8168 20.6834 18.0816 16.286 24.4075 13.2107C27.8484 11.5327 31.5216 10.299 35.0983 8.87134C35.6016 8.67625 36.1384 8.62012 36.8324 8.46045Z" fill="#0B2027"/>
</svg>
