<svg width="69" height="66" viewBox="0 0 69 66" fill="none" xmlns="http://www.w3.org/2000/svg">
<path d="M51.6773 45.1288C52.0264 45.1568 52.3516 45.1706 52.6679 45.1706C60.4957 45.1706 66.8642 38.767 66.8642 30.8959C66.8642 23.0248 60.4957 16.6212 52.6679 16.6212C51.787 16.6212 50.9123 16.7036 50.0516 16.8658C49.5108 8.76773 42.7871 2.34644 34.6 2.34644C26.4129 2.34644 19.6892 8.76773 19.1485 16.8658C18.2878 16.7036 17.413 16.6212 16.5321 16.6212C8.70429 16.6212 2.33588 23.0248 2.33588 30.8959C2.33588 38.767 8.70429 45.1706 16.5321 45.1706C16.8484 45.1706 17.1736 45.1568 17.5227 45.1288H51.6773Z" stroke="#09CC62" stroke-width="2" stroke-miterlimit="10"/>
<path d="M26.4004 36.9258L34.6 46.347" stroke="#09CC62" stroke-width="2" stroke-linecap="round" stroke-linejoin="round"/>
<path d="M42.7997 36.9258L34.6 46.347V63.2535" stroke="#09CC62" stroke-width="2" stroke-linecap="round" stroke-linejoin="round"/>
<path d="M42.7997 63.2534H26.4004" stroke="#09CC62" stroke-width="2" stroke-linecap="round" stroke-linejoin="round"/>
</svg>
