<svg width="64" height="18" viewBox="0 0 64 18" fill="none" xmlns="http://www.w3.org/2000/svg">
<path d="M12.5358 6.16965C13.6849 5.45586 14.6474 5.89614 15.5853 5.83602C16.2275 5.80014 16.9163 5.72694 17.4737 5.46356C18.6679 4.8968 18.7179 3.0841 17.5912 2.45632C17.0203 2.15143 16.3727 1.91979 15.736 1.82124C11.7325 1.21151 7.71391 0.619772 3.68296 0.0792724C2.94632 -0.0278288 2.1439 0.0714034 1.39758 0.249787C0.26098 0.510392 -0.307766 1.8465 0.190274 2.87746C0.329831 3.16746 0.518687 3.45341 0.706177 3.72274C2.57428 6.33284 4.41089 8.96226 6.32556 11.535C6.77172 12.1349 7.36304 12.6893 8.00782 13.0886C9.24536 13.858 10.3985 13.1941 10.5237 11.6934C10.5553 11.2722 10.4692 10.8271 10.4106 10.1118C11.0883 10.3074 11.5593 10.4028 12.0221 10.5993C14.9683 11.8316 17.8981 13.0652 20.8293 14.3154C27.3583 17.0795 34.2196 17.6393 41.1852 17.2527C43.3583 17.1248 45.5726 16.6922 47.6131 15.9556C50.8108 14.806 53.9209 13.3956 56.9571 11.8908C60.3741 10.1874 62.4825 7.25141 63.6915 3.63556C63.8903 3.03314 63.996 2.30438 63.8634 1.69562C63.7609 1.25187 63.2681 0.689359 62.8451 0.573308C62.422 0.457258 61.7154 0.71613 61.4304 1.07441C60.9469 1.63318 60.6454 2.39473 60.322 3.0911C58.9818 5.91386 56.9326 7.9574 54.0895 9.19517C51.1656 10.4563 48.3457 11.9769 45.2085 12.6526C38.2821 14.1245 31.4414 13.6133 24.7602 11.4144C21.1224 10.222 17.6273 8.54909 14.0663 7.0825C13.5694 6.87203 13.145 6.53839 12.5358 6.16965Z" fill="#0B2027"/>
</svg>
