<svg width="53" height="61" viewBox="0 0 53 61" fill="none" xmlns="http://www.w3.org/2000/svg">
<path d="M47.6 35.5998V30.8C47.6 26.8236 44.3764 23.6 40.4 23.6H4.4C3.07448 23.6 2 22.5255 2 21.2V20" stroke="#09CC62" stroke-width="2" stroke-linejoin="round"/>
<path d="M47.6 47.6003V52.4001C47.6 56.3765 44.3764 59.6001 40.4 59.6001H4.4C3.07448 59.6001 2 58.5256 2 57.2001V23.6001" stroke="#09CC62" stroke-width="2" stroke-linejoin="round"/>
<path d="M21.2002 17.6001H40.4001C44.3765 17.6001 47.6001 20.8237 47.6001 24.8001" stroke="#09CC62" stroke-width="2" stroke-linejoin="round"/>
<path d="M2 24.8001V20.0001C2 18.6747 3.07448 17.6001 4.4 17.6001H9.20024" stroke="#09CC62" stroke-width="2" stroke-linejoin="round"/>
<path d="M48.8 35.6001H34.4C33.0745 35.6001 32 36.6746 32 38.0001V45.2001C32 46.5256 33.0745 47.6001 34.4 47.6001H48.8C50.1255 47.6001 51.2 46.5256 51.2 45.2001V38.0001C51.2 36.6746 50.1255 35.6001 48.8 35.6001Z" stroke="#09CC62" stroke-width="2" stroke-linejoin="round"/>
<path d="M44.0001 44C45.3256 44 46.4001 42.9254 46.4001 41.6C46.4001 40.2745 45.3256 39.2 44.0001 39.2C42.6746 39.2 41.6001 40.2745 41.6001 41.6C41.6001 42.9254 42.6746 44 44.0001 44Z" stroke="#09CC62" stroke-width="2" stroke-linejoin="round"/>
<path d="M47.6001 30.8V24.8" stroke="#09CC62" stroke-width="2" stroke-linejoin="round"/>
<path d="M15.2001 21.2C18.5138 21.2 21.2001 18.5137 21.2001 15.2C21.2001 11.8862 18.5138 9.19995 15.2001 9.19995C11.8864 9.19995 9.20007 11.8862 9.20007 15.2C9.20007 18.5137 11.8864 21.2 15.2001 21.2Z" stroke="#09CC62" stroke-width="2" stroke-linejoin="round"/>
<path d="M30.8 14C34.1138 14 36.8 11.3137 36.8 8C36.8 4.68629 34.1138 2 30.8 2C27.4863 2 24.8 4.68629 24.8 8C24.8 11.3137 27.4863 14 30.8 14Z" stroke="#09CC62" stroke-width="2" stroke-linejoin="round"/>
</svg>
