<svg width="42" height="37" viewBox="0 0 42 37" fill="none" xmlns="http://www.w3.org/2000/svg">
<g clip-path="url(#clip0_253_1733)">
<path d="M9.0002 22H3C1.8954 22 1 21.1046 1 20V3C1 1.8954 1.8954 1 3 1H31C32.1045 1 33 1.8954 33 3V15" stroke="#09CC62" stroke-width="2" stroke-miterlimit="10"/>
<path d="M39 15H11C9.89543 15 9 15.8954 9 17V34C9 35.1046 9.89543 36 11 36H39C40.1046 36 41 35.1046 41 34V17C41 15.8954 40.1046 15 39 15Z" stroke="#09CC62" stroke-width="2" stroke-miterlimit="10"/>
<path d="M33.5 26C35.433 26 37 24.433 37 22.5C37 20.567 35.433 19 33.5 19C31.567 19 30 20.567 30 22.5C30 24.433 31.567 26 33.5 26Z" stroke="#09CC62" stroke-width="2" stroke-miterlimit="10"/>
<path d="M30.9493 25.0001C30.3181 25.6186 29.4535 26 28.5 26C26.567 26 25 24.433 25 22.5C25 20.567 26.567 19 28.5 19C29.4551 19 30.3209 19.3826 30.9525 20.003" stroke="#09CC62" stroke-width="2" stroke-miterlimit="10"/>
<path d="M1 5H33" stroke="#09CC62" stroke-width="2" stroke-miterlimit="10"/>
<path d="M33 10H1" stroke="#09CC62" stroke-width="2" stroke-miterlimit="10"/>
</g>
<defs>
<clipPath id="clip0_253_1733">
<rect width="42" height="37" fill="white"/>
</clipPath>
</defs>
</svg>
