<svg width="98" height="91" viewBox="0 0 98 91" fill="none" xmlns="http://www.w3.org/2000/svg">
<path d="M75.2329 22.6088C73.4441 9.77745 62.2994 0 49.0115 0C35.7247 0 24.5805 9.7761 22.7905 22.6061C9.85548 24.0169 0 34.7497 0 47.8733C0 60.4494 9.0858 71.0112 21.6038 72.9867C22.8746 73.1928 24.0704 72.3291 24.2725 71.0698C24.4751 69.8101 23.6087 68.6266 22.3373 68.4259C12.0957 66.8094 4.66219 58.1659 4.66219 47.8733C4.66219 36.5732 13.5909 27.4389 24.9894 27.0785L27.114 27.0113L27.2417 24.9095C27.9331 13.5314 37.4953 4.61856 49.0115 4.61856C60.5277 4.61856 70.0901 13.5314 70.7811 24.9095L70.9088 27.01L73.0313 27.079C84.4182 27.4502 93.3378 36.584 93.3378 47.8733C93.3378 53.8211 90.6275 59.7011 86.0877 63.6021C83.7626 65.6002 81.0663 67.0647 78.2904 67.8373C73.7653 69.0961 69.7157 68.4836 66.2208 66.0196C68.8656 58.9069 68.9651 51.8537 66.479 46.0358C65.0553 42.7041 62.9177 40.2829 60.297 39.034C56.7867 37.3616 52.4631 38.1563 50.2403 40.8819C48.4606 43.064 48.0392 46.1747 48.988 50.1267C50.7184 57.3364 55.4241 62.4186 60.6114 67.3254C58.4444 71.8732 55.393 76.0589 52.3087 80.1068C52.2943 78.7571 52.2249 77.4073 52.0945 76.061C51.9716 74.7913 50.8352 73.8626 49.5515 73.9826C48.2701 74.1044 47.3308 75.2324 47.4537 76.5021C47.8341 80.4319 47.667 84.3942 46.957 88.2794C46.7819 89.2374 47.232 90.2008 48.0822 90.6888C48.4458 90.8976 48.849 91 49.2503 91C49.7878 91 50.3218 90.816 50.7521 90.4574C56.3221 85.8118 63.9631 83.5467 71.1945 84.3937C72.4725 84.5502 73.6321 83.6392 73.7837 82.3727C73.9351 81.1057 73.0215 79.9574 71.7431 79.8077C66.7944 79.2268 61.6837 79.892 56.9853 81.6259C59.6641 78.0674 62.2712 74.3733 64.3239 70.3234C68.788 73.1509 73.984 73.8324 79.5513 72.2836C82.9849 71.3278 86.3015 69.5327 89.1427 67.0913C94.7717 62.254 98 55.249 98 47.8733C98 34.7623 88.1548 24.0305 75.2329 22.6088V22.6088ZM62.4408 62.65C58.3527 58.6525 54.8192 54.4561 53.5237 49.0586C52.9266 46.5703 53.042 44.7959 53.8667 43.7847C54.4035 43.1267 55.3603 42.774 56.3811 42.774C57.0167 42.774 57.6773 42.9106 58.2762 43.1961C60.2759 44.1492 61.5058 46.2455 62.1856 47.8363C64.4516 53.1387 63.6318 58.7152 62.4408 62.65L62.4408 62.65Z" fill="#09CC62"/>
</svg>
