<svg width="48" height="50" viewBox="0 0 48 50" fill="none" xmlns="http://www.w3.org/2000/svg">
<path d="M30.0001 10.8H45.6L40.8 32.4H7.20001V10.8H22.7998" stroke="#09CC62" stroke-width="2" stroke-miterlimit="10"/>
<path d="M7.2 10.8V6H0" stroke="#09CC62" stroke-width="2" stroke-miterlimit="10"/>
<path d="M12 47.9999C14.651 47.9999 16.8 45.8509 16.8 43.1999C16.8 40.5489 14.651 38.3999 12 38.3999C9.34905 38.3999 7.20001 40.5489 7.20001 43.1999C7.20001 45.8509 9.34905 47.9999 12 47.9999Z" stroke="#09CC62" stroke-width="2" stroke-miterlimit="10"/>
<path d="M34.8 47.9999C37.451 47.9999 39.6 45.8509 39.6 43.1999C39.6 40.5489 37.451 38.3999 34.8 38.3999C32.149 38.3999 30 40.5489 30 43.1999C30 45.8509 32.149 47.9999 34.8 47.9999Z" stroke="#09CC62" stroke-width="2" stroke-miterlimit="10"/>
<path d="M16.8 43.2H31.2" stroke="#09CC62" stroke-width="2" stroke-miterlimit="10"/>
<path d="M32.4 15.6L26.4 21.5999V10.8C26.4 5.49799 30.6981 1.19995 36 1.19995H39.6" stroke="#09CC62" stroke-width="2" stroke-linejoin="round"/>
<path d="M26.4 21.5999L20.4 15.5999" stroke="#09CC62" stroke-width="2" stroke-linejoin="round"/>
</svg>
