<svg width="43" height="55" viewBox="0 0 43 55" fill="none" xmlns="http://www.w3.org/2000/svg">
<path d="M34.1982 41.2157C32.9463 40.7033 32.7387 39.6655 32.14 38.9409C31.7344 38.4417 31.2713 37.9267 30.7311 37.6296C29.5718 36.9945 28.0741 38.0168 28.2261 39.2976C28.3138 39.9388 28.5059 40.5992 28.7993 41.1728C30.6527 44.7734 32.5296 48.3758 34.4551 51.9581C34.8003 52.6176 35.3511 53.2095 35.9332 53.7095C36.8107 54.4774 38.2265 54.1548 38.7697 53.1468C38.9228 52.8638 39.0437 52.5431 39.152 52.2333C40.1711 49.1897 41.2243 46.1602 42.1858 43.1007C42.4101 42.3876 42.5126 41.5835 42.458 40.827C42.3557 39.3734 41.1418 38.8285 39.8527 39.607C39.4929 39.8283 39.1828 40.159 38.6377 40.6259C38.3989 39.9622 38.2 39.5247 38.0879 39.0346C37.3587 35.9255 36.6402 32.8288 35.9344 29.7213C34.3454 22.8116 30.7761 16.9252 26.3788 11.5091C25.0011 9.82372 23.3524 8.28364 21.5593 7.06254C18.7532 5.14619 15.7872 3.45363 12.7879 1.87632C9.40458 0.107054 5.79003 0.120476 2.15202 1.26109C1.54747 1.45328 0.895141 1.79494 0.479741 2.25927C0.18038 2.60251 0.0135952 3.33147 0.167634 3.74223C0.321672 4.15299 0.945694 4.57364 1.403 4.59441C2.13916 4.65851 2.93287 4.45626 3.6866 4.30996C6.75905 3.74059 9.61596 4.20245 12.2856 5.77985C15.0215 7.409 17.9066 8.80182 20.2935 10.9471C25.5469 15.695 29.1436 21.5362 31.2796 28.2379C32.4465 31.8838 33.1406 35.6961 34.0404 39.4406C34.1612 39.9666 34.1398 40.506 34.1982 41.2157Z" fill="#0B2027"/>
</svg>
